<?xml version="1.0" encoding="UTF-8" standalone="no"?>
<!-- Created with Inkscape (http://www.inkscape.org/) -->

<svg
   xmlns:dc="http://purl.org/dc/elements/1.1/"
   xmlns:cc="http://creativecommons.org/ns#"
   xmlns:rdf="http://www.w3.org/1999/02/22-rdf-syntax-ns#"
   xmlns:svg="http://www.w3.org/2000/svg"
   xmlns="http://www.w3.org/2000/svg"
   xmlns:sodipodi="http://sodipodi.sourceforge.net/DTD/sodipodi-0.dtd"
   xmlns:inkscape="http://www.inkscape.org/namespaces/inkscape"
   width="1400"
   height="1650"
   viewBox="0 0 370.41666 436.56251"
   version="1.1"
   id="svg8"
   inkscape:version="0.92.2 2405546, 2018-03-11"
   sodipodi:docname="shutdown.svg">
  <defs
     id="defs2" />
  <sodipodi:namedview
     id="base"
     pagecolor="#ffffff"
     bordercolor="#666666"
     borderopacity="1.0"
     inkscape:pageopacity="0.0"
     inkscape:pageshadow="2"
     inkscape:zoom="0.04375"
     inkscape:cx="5945.2899"
     inkscape:cy="474.00975"
     inkscape:document-units="px"
     inkscape:current-layer="layer1"
     showgrid="false"
     units="px"
     inkscape:window-width="1680"
     inkscape:window-height="994"
     inkscape:window-x="0"
     inkscape:window-y="0"
     inkscape:window-maximized="1">
    <inkscape:grid
       type="xygrid"
       id="grid839" />
  </sodipodi:namedview>
  <metadata
     id="metadata5">
    <rdf:RDF>
      <cc:Work
         rdf:about="">
        <dc:format>image/svg+xml</dc:format>
        <dc:type
           rdf:resource="http://purl.org/dc/dcmitype/StillImage" />
        <dc:title />
      </cc:Work>
    </rdf:RDF>
  </metadata>
  <g
     inkscape:label="Ebene 1"
     inkscape:groupmode="layer"
     id="layer1"
     transform="translate(0,139.56253)">
    <path
       style="fill:#000000;fill-opacity:1;stroke:none;stroke-width:0.26458332px;stroke-linecap:butt;stroke-linejoin:miter;stroke-opacity:1"
       d="m -76.351147,-290.37499 -6.04762,96.7619 c 0,0 1.5119,25.70238 45.35714,12.85119 43.8452401,-12.85119 43.0892901,-61.98809 65.01191,-53.67261 21.92262,8.31547 4.53571,100.54166 36.28571,101.29761 31.75,0.75595 36.285707,-69.54761 97.517847,-74.08333 61.23214,-4.53571 14.36309,106.58928 52.16072,108.101193 37.79761,1.511906 34.01785,-96.005953 74.83928,-96.761903 40.82142,-0.75596 67.27976,21.92262 77.86309,21.92262 10.58333,0 9.82739,-115.66072 9.82739,-115.66072 z"
       id="path815"
       inkscape:connector-curvature="0"
       sodipodi:nodetypes="ccssssssscc" />
    <path
       style="fill:#000000;fill-opacity:1;stroke:none;stroke-width:0.26458332px;stroke-linecap:butt;stroke-linejoin:miter;stroke-opacity:1"
       d="m -76.351147,-290.37499 -6.04762,114.22444 c -0.4268,0 -7.47683,40.06548 43.08929,27.21429 44.2820701,-11.25413 43.8452301,-46.86905 65.76785,-38.55357 21.92262,8.31547 7.55953,83.91071 38.55357,82.3988 31.72128,-1.54738 27.97024,-95.24999 89.202367,-99.78571 61.23214,-4.53571 25.70238,146.654761 63.50001,148.166671 37.79761,1.511906 29.48214,-127.000001 70.30357,-127.755951 40.82142,-0.75596 67.27976,26.45833 77.86309,26.45833 10.58333,0 10.58334,-131.61135 10.58334,-131.61135 z"
       id="path842"
       inkscape:connector-curvature="0"
       sodipodi:nodetypes="ccssssssscc" />
    <path
       style="fill:#000000;fill-opacity:1;stroke:none;stroke-width:0.26458332px;stroke-linecap:butt;stroke-linejoin:miter;stroke-opacity:1"
       d="m -76.351147,-290.37499 -5.29167,148.31782 c -0.75595,-22.75417 -8.02691,26.32585 43.08929,15.875 29.1630301,-5.96246 40.3449701,-60.42272 61.98809,-51.40476 18.14286,7.55952 11.33929,90.714285 42.33333,89.202378 31.72128,-1.54738 28.64794,-87.400218 88.446417,-90.714288 55.9363,-3.10002 21.89239,136.071433 65.76787,136.071434 45.35713,10e-7 32.50595,-126.244044 68.03571,-127.755954 40.7915,-1.7358 67.27976,31.75 77.86309,31.75 10.58333,0 10.58334,-150.58568 10.58334,-150.58568 z"
       id="path846"
       inkscape:connector-curvature="0"
       sodipodi:nodetypes="ccssssssscc" />
    <path
       style="fill:#000000;fill-opacity:1;stroke:none;stroke-width:0.26458332px;stroke-linecap:butt;stroke-linejoin:miter;stroke-opacity:1"
       d="m -76.351147,-290.37499 -5.29167,157.04911 c -0.75595,-22.75417 -0.88514,26.70337 47.625,23.85026 33.29416015,-1.95819 34.70573015,-61.62714 57.45238,-55.94048 18.14286,4.53571 13.68953,103.115578 40.82143,104.321435 34.08659,1.514954 30.14532,-95.989035 89.958317,-99.029775 46.10892,-2.34406 25.70457,133.977954 63.50001,127.000016 38.6848,-7.142133 39.30952,-121.708336 74.83928,-123.220246 40.7915,-1.7358 52.94011,34.82577 73.32738,34.77381 22.72884,-0.0579 10.58334,-168.04818 10.58334,-168.04818 z"
       id="path850"
       inkscape:connector-curvature="0"
       sodipodi:nodetypes="ccssssssscc" />
    <path
       style="fill:#000000;fill-opacity:1;stroke:none;stroke-width:0.26458332px;stroke-linecap:butt;stroke-linejoin:miter;stroke-opacity:1"
       d="m -76.351147,-290.37499 -5.29167,174.51179 c -0.75595,-22.75417 -0.12919,28.971235 48.38095,26.118125 33.29416015,-1.958188 28.6581101,-63.894995 51.40476,-58.208335 18.14286,4.53571 20.50195,110.490464 43.84525,111.880954 29.53732,1.759449 31.6785,-112.226994 91.470217,-115.660724 40.81726,-2.34406 19.14398,135.398538 63.50001,132.291679 50.82225,-3.559777 43.08928,-121.708339 78.61904,-123.220249 40.7915,-1.7358 49.9163,38.60553 70.30357,38.55357 22.72884,-0.0579 10.58334,-185.51086 10.58334,-185.51086 z"
       id="path856"
       inkscape:connector-curvature="0"
       sodipodi:nodetypes="ccssssssscc" />
    <path
       style="fill:#000000;fill-opacity:1;stroke:none;stroke-width:0.26458332px;stroke-linecap:butt;stroke-linejoin:miter;stroke-opacity:1"
       d="m -76.351147,-290.37499 -5.29167,191.974334 c -0.75595,-22.754174 0.59017,34.307831 49.13691,32.165738 27.2465301,-1.202236 25.6342901,-61.627132 48.38095,-55.940472 18.14286,4.53571 18.21516,100.273089 46.1131,101.297615 40.132147,1.473816 32.43445,-115.250795 92.226167,-118.684525 40.81726,-2.34406 22.14319,139.56039278 62.74406,136.8273834 45.51383,-3.0637208 44.60118,-124.7321434 80.13094,-126.2440534 40.7915,-1.7358 41.60083,46.921005 68.79167,46.869045 22.72887,-0.04343 10.58334,-207.509115 10.58334,-207.509115 z"
       id="path860"
       inkscape:connector-curvature="0"
       sodipodi:nodetypes="ccssssssscc" />
    <path
       style="fill:#000000;fill-opacity:1;stroke:none;stroke-width:0.26458332px;stroke-linecap:butt;stroke-linejoin:miter;stroke-opacity:1"
       d="m -76.351147,-290.37499 -5.29167,209.436758 c -0.75595,-22.754178 -3.15887,41.720756 45.35715,38.969309 21.19891,-1.202236 23.80052,-57.11093 46.86904,-52.91666 16.63096,3.0238 20.4794,86.0139055 52.16072,86.9345175 44.673307,1.29814 31.6785,-118.2746045 91.470217,-121.7083345 40.81726,-2.34406 25.30136,150.754587 66.52382,148.922622 49.11563,-2.182745 43.84523,-136.827382 79.37499,-138.339292 40.7915,-1.7358 38.57702,54.480529 65.76786,54.428569 22.72887,-0.04343 10.58334,-224.971539 10.58334,-224.971539 z"
       id="path864"
       inkscape:connector-curvature="0"
       sodipodi:nodetypes="ccssssssscc" />
    <path
       style="fill:#000000;fill-opacity:1;stroke:none;stroke-width:0.26458332px;stroke-linecap:butt;stroke-linejoin:miter;stroke-opacity:1"
       d="m -76.351188,-290.37503 -5.29167,226.899405 c -0.75595,-22.754175 -9.96244,47.768375 38.55357,45.016928 21.19892,-1.202236 28.33625,-66.938311 51.4047603,-62.744041 16.6309597,3.0238 25.7710697,84.5020015 57.4523897,85.4226134 44.673318,1.29814 30.16659,-114.4948354 89.958318,-117.9285654 40.81726,-2.34406 25.05688,155.364635 65.01192,155.726186 43.21915,0.391088 55.15024,-140.045342 83.9107,-140.607142 32.45651,-0.634 34.04131,62.040046 61.23215,61.988086 22.72887,-0.04343 10.58334,-253.01752 10.58334,-253.01752 z"
       id="path868"
       inkscape:connector-curvature="0"
       sodipodi:nodetypes="ccssssssscc" />
    <path
       style="fill:#000000;fill-opacity:1;stroke:none;stroke-width:0.26458332px;stroke-linecap:butt;stroke-linejoin:miter;stroke-opacity:1"
       d="m -76.351188,-290.37503 -5.29167,244.362018 c -0.75595,-22.754175 -9.96244,42.4767078 38.55357,39.7252608 21.19892,-1.2022355 28.33625,-61.6466438 51.4047603,-57.4523738 16.6309597,3.0238 28.1473097,81.394507 59.7202397,78.619041 45.429278,-3.993526 24.90102,-109.531542 84.666658,-113.392852 36.28155,-2.344064 15.07409,181.867437 65.01193,173.869045 62.089,-9.94461 59.68594,-141.557247 88.4464,-142.119047 32.45651,-0.634 32.52941,47.676951 59.72025,47.624991 22.72887,-0.04343 10.58334,-270.480133 10.58334,-270.480133 z"
       id="path872"
       inkscape:connector-curvature="0"
       sodipodi:nodetypes="ccssssssscc" />
    <path
       style="fill:#000000;fill-opacity:1;stroke:none;stroke-width:0.26458332px;stroke-linecap:butt;stroke-linejoin:miter;stroke-opacity:1"
       d="m -76.351188,-290.37503 -5.29167,261.82448 c -0.75595,-22.754175 -9.96244,37.9409933 38.55357,35.1895463 21.19892,-1.2022355 28.33625,-57.1109293 51.4047603,-52.9166593 16.6309597,3.0238 31.8058797,60.666484 58.9642897,60.476184 35.601668,-0.249462 39.954958,-103.210515 84.666658,-101.297614 49.13665,2.102214 19.62774,198.609623 69.54764,190.499993 65.86876,-10.700558 61.95667,-139.180018 85.42259,-139.851186 27.16174,-0.776875 37.82108,34.8257613 58.9643,34.7738013 22.72884,-0.055857 10.58334,-287.9425953 10.58334,-287.9425953 z"
       id="path876"
       inkscape:connector-curvature="0"
       sodipodi:nodetypes="ccssssssscc" />
    <path
       style="fill:#000000;fill-opacity:1;stroke:none;stroke-width:0.26458332px;stroke-linecap:butt;stroke-linejoin:miter;stroke-opacity:1"
       d="m -76.351188,-290.37503 -5.29167,279.286983 c -0.75595,-22.754175 -9.96244,44.744566 38.55357,41.993119 21.19892,-1.202236 28.72357,-47.538666 52.1607203,-46.869041 26.4583297,0.755943 31.0499197,44.035531 58.2083297,43.845231 35.601668,-0.249462 39.954958,-99.430753 84.666658,-97.517852 49.13665,2.102214 18.87179,194.07391 69.54764,190.49999 66.56693,-4.69463 62.71262,-130.1085854 86.17854,-130.7797534 27.16174,-0.7768746 35.55317,26.4901644 58.20835,25.7023724 37.06956,-1.289026 10.58334,-305.405099 10.58334,-305.405099 z"
       id="path880"
       inkscape:connector-curvature="0"
       sodipodi:nodetypes="ccssssssscc" />
    <path
       style="fill:#000000;fill-opacity:1;stroke:none;stroke-width:0.26458332px;stroke-linecap:butt;stroke-linejoin:miter;stroke-opacity:1"
       d="m -76.351188,-290.37503 -5.29167,296.7493709 c -0.75595,-22.7541749 -0.89101,57.5957561 47.625,54.8443091 C -12.818938,60.016414 -15.121678,0.82879401 8.3154723,1.498419 34.773812,2.254362 40.121352,53.849426 67.279762,53.659126 102.88143,53.409664 109.54465,-54.23145 150.43451,-52.930155 c 52.99979,1.686687 25.65947,196.108665 71.05955,195.791655 59.89155,-0.41819 64.98047,-123.305012 88.44639,-123.97618 27.16174,-0.776874 33.28532,15.150879 55.9405,14.363087 37.06956,-1.289026 10.58334,-322.867487 10.58334,-322.867487 z"
       id="path884"
       inkscape:connector-curvature="0"
       sodipodi:nodetypes="ccssssssscc" />
    <path
       style="fill:#000000;fill-opacity:1;stroke:none;stroke-width:0.26458332px;stroke-linecap:butt;stroke-linejoin:miter;stroke-opacity:1"
       d="m -76.351188,-290.37503 -3.77976,334.622437 c -0.75595,-22.754175 9.69231,42.476709 48.38095,38.213358 21.10522,-2.325722 17.38864,-72.6234872 40.8214303,-71.81547 C 30.994052,11.401238 40.121522,78.137952 67.279762,77.92505 99.101672,77.675588 110.3006,-26.941718 151.19046,-25.640422 c 52.99979,1.686687 29.43954,181.030232 70.3036,188.232122 52.28385,9.21452 64.98047,-120.281193 88.44639,-120.952361 27.16174,-0.776874 36.30913,15.906832 58.96431,15.11904 37.06956,-1.289026 7.55953,-346.377459 7.55953,-346.377459 z"
       id="path888"
       inkscape:connector-curvature="0"
       sodipodi:nodetypes="ccssssssscc" />
    <path
       style="fill:#000000;fill-opacity:1;stroke:none;stroke-width:0.26458332px;stroke-linecap:butt;stroke-linejoin:miter;stroke-opacity:1"
       d="m -76.351188,-290.37503 -3.77976,352.084939 c -0.75595,-22.754175 11.96017,45.500521 50.64881,41.237171 C -8.3769177,100.62135 -13.605408,37.883113 9.8273823,38.691131 31.750002,39.447074 32.561632,109.15447 66.523812,107.48279 108.87851,105.39802 111.05655,2.6160226 151.94641,3.9173186 204.9462,5.6040056 183.19845,167.18229 224.51786,170.98277 c 59.08743,5.43476 61.95667,-111.209761 85.42259,-111.880929 27.16174,-0.776874 38.57699,24.978261 61.23217,24.190469 37.06956,-1.289026 5.29167,-372.91139 5.29167,-372.91139 z"
       id="path892"
       inkscape:connector-curvature="0"
       sodipodi:nodetypes="ccssssssscc" />
    <path
       style="fill:#000000;fill-opacity:1;stroke:none;stroke-width:0.26458332px;stroke-linecap:butt;stroke-linejoin:miter;stroke-opacity:1"
       d="m -76.351188,-290.37503 -3.77976,369.547367 c -0.75595,-22.754175 15.54951,59.742723 52.16071,46.528843 21.1052303,-7.6174 14.36483,-70.355639 37.7976203,-69.547621 C 31.750002,56.909502 32.561632,138.71214 66.523812,137.04046 108.87851,134.95569 111.8125,29.905832 152.70236,31.207128 c 52.99979,1.686687 22.88006,148.064622 78.61907,149.678542 72.1134,2.08806 55.1531,-103.650233 78.61902,-104.321401 27.16174,-0.776874 40.08889,40.853261 62.74407,40.065471 37.06956,-1.28903 3.77977,-406.24882 3.77977,-406.24882 z"
       id="path896"
       inkscape:connector-curvature="0"
       sodipodi:nodetypes="ccssssssscc" />
    <path
       style="fill:#000000;fill-opacity:1;stroke:none;stroke-width:0.26458332px;stroke-linecap:butt;stroke-linejoin:miter;stroke-opacity:1"
       d="m -76.351188,-290.37503 -3.77976,387.010017 c -0.75595,-22.754175 12.57535,56.783393 51.40476,54.088363 C -6.1090577,149.15357 -13.605408,68.272476 9.8273823,69.080494 31.750002,69.836437 25.718992,170.75138 65.767862,169.62216 117.93235,168.15132 111.8125,56.43991 152.70236,57.741206 c 52.99979,1.686687 28.17231,133.804894 80.88693,134.559494 62.31496,0.89204 58.17691,-92.310947 81.64283,-92.982115 27.16174,-0.776874 37.06507,54.460405 59.72025,53.672615 37.06956,-1.28903 1.51192,-442.61028 1.51192,-442.61028 z"
       id="path900"
       inkscape:connector-curvature="0"
       sodipodi:nodetypes="ccssssssscc" />
    <path
       style="fill:#000000;fill-opacity:1;stroke:none;stroke-width:0.26458332px;stroke-linecap:butt;stroke-linejoin:miter;stroke-opacity:1"
       d="m -76.351188,-290.37503 -3.77976,404.47259 c -0.75595,-22.754173 8.03963,57.53935 46.86905,54.84432 22.61712,-1.56978 14.36482,-74.891354 37.7976103,-74.083336 C 26.458332,95.614487 18.021692,212.32739 65.767862,199.93592 127.48029,183.91983 117.13533,77.680175 153.45831,79.739495 c 48.44779,2.746733 41.78034,127.698035 86.1786,127.755925 57.78608,0.0753 51.37334,-82.48357 74.83926,-83.15474 27.16174,-0.77687 38.57698,54.46041 58.9643,53.67262 37.0643,-1.43221 3.02382,-467.63238 3.02382,-467.63238 z"
       id="path904"
       inkscape:connector-curvature="0"
       sodipodi:nodetypes="ccssssssscc" />
    <path
       style="fill:#000000;fill-opacity:1;stroke:none;stroke-width:0.26458332px;stroke-linecap:butt;stroke-linejoin:miter;stroke-opacity:1"
       d="m -76.351188,-290.37503 -3.77976,421.93508 c -0.75595,-22.75418 8.03963,57.53935 46.86905,54.84432 22.61712,-1.56978 14.36482,-67.33184 37.7976103,-66.52382 21.9226197,0.75594 20.3599297,114.84202 61.2321497,111.125 51.819138,-4.71256 52.123418,-130.57122 88.446398,-128.5119 48.44779,2.74673 41.18685,103.55013 85.42265,107.34521 44.93489,3.85507 51.37334,-62.07285 74.83926,-62.74402 27.16174,-0.77687 38.57698,49.16874 58.9643,48.38095 37.0643,-1.43221 3.02382,-485.09487 3.02382,-485.09487 z"
       id="path910"
       inkscape:connector-curvature="0"
       sodipodi:nodetypes="ccssssssscc" />
    <path
       style="fill:#000000;fill-opacity:1;stroke:none;stroke-width:0.26458332px;stroke-linecap:butt;stroke-linejoin:miter;stroke-opacity:1"
       d="m -76.351188,-290.37503 -3.77976,439.3975 c -0.75595,-22.75418 -4.05561,59.05126 34.77381,56.35623 22.61713,-1.56978 27.21602,-57.50445 50.6488003,-56.69643 21.9226297,0.75594 23.9713797,112.80668 59.7202497,112.6369 42.747598,-0.20303 52.123418,-138.13075 88.446398,-136.07143 48.44779,2.74673 44.21066,94.4787 88.44646,98.27378 44.93489,3.85507 49.86143,-53.75737 73.32735,-54.42854 27.16174,-0.77687 40.08889,57.48422 60.47621,56.69643 37.0643,-1.43221 0.75596,-515.40849 0.75596,-515.40849 z"
       id="path914"
       inkscape:connector-curvature="0"
       sodipodi:nodetypes="ccssssssscc" />
    <path
       style="fill:#000000;fill-opacity:1;stroke:none;stroke-width:0.26458332px;stroke-linecap:butt;stroke-linejoin:miter;stroke-opacity:1"
       d="m -76.351188,-290.37503 -3.77976,456.86019 c -0.75595,-22.75418 -6.32346,59.05126 26.45833,56.35623 22.59531,-1.85759 35.5315,-57.50445 58.9642803,-56.69643 21.9226297,0.75594 31.6552597,127.80083 59.7202497,128.5119 30.00472,0.76022 67.978738,-147.57529 89.202348,-147.41072 43.20072,0.33498 33.46993,84.58313 87.69051,83.91069 44.93659,-0.5573 53.77376,-41.88913 77.10711,-39.30949 27.16174,3.00289 36.30913,57.48421 56.69645,56.69642 37.0643,-1.43221 0.75596,-538.16284 0.75596,-538.16284 z"
       id="path918"
       inkscape:connector-curvature="0"
       sodipodi:nodetypes="ccssssssscc" />
    <path
       style="fill:#000000;fill-opacity:1;stroke:none;stroke-width:0.26458332px;stroke-linecap:butt;stroke-linejoin:miter;stroke-opacity:1"
       d="m -76.351188,-290.37503 -3.77976,474.32288 c -0.75595,-22.75418 -5.56751,53.75959 27.21428,51.06456 22.59531,-1.85759 31.75174,-37.84968 55.1845203,-37.04166 21.9226297,0.75594 36.1909697,130.82464 64.2559597,131.53571 30.00472,0.76022 66.466838,-152.86696 87.690448,-152.70239 43.20072,0.33498 22.13626,71.54103 88.44646,72.57141 50.23126,0.78053 58.18636,-40.255 76.35116,-40.06545 37.01714,0.38627 37.82103,64.28778 58.20835,63.49999 37.0643,-1.43221 -0.75594,-562.4291 -0.75594,-562.4291 z"
       id="path922"
       inkscape:connector-curvature="0"
       sodipodi:nodetypes="ccssssssscc" />
    <path
       style="fill:#000000;fill-opacity:1;stroke:none;stroke-width:0.26458332px;stroke-linecap:butt;stroke-linejoin:miter;stroke-opacity:1"
       d="m -76.351188,-290.37503 -3.77976,491.78557 c -0.75595,-22.75418 -4.05561,55.2715 18.14285,52.57647 22.50629,-2.7324 35.5315,-26.5104 58.9642903,-25.70238 21.9226197,0.75594 33.1622697,131.05475 70.3035697,131.53571 44.370608,0.57458 61.931128,-161.93839 89.202358,-161.77382 43.20123,0.26071 26.67197,62.4696 86.93455,63.49998 50.22998,0.85884 55.91851,-28.91571 74.08331,-28.72616 37.01714,0.38627 39.33293,58.24016 59.72025,57.45237 37.0643,-1.43221 -0.75594,-579.89179 -0.75594,-579.89179 z"
       id="path926"
       inkscape:connector-curvature="0"
       sodipodi:nodetypes="ccssssssscc" />
    <path
       style="fill:#000000;fill-opacity:1;stroke:none;stroke-width:0.26458332px;stroke-linecap:butt;stroke-linejoin:miter;stroke-opacity:1"
       d="m -76.351188,-290.37503 -3.77976,509.24801 c -0.75595,-22.75418 -2.5437,65.85484 19.65476,63.15981 22.50628,-2.7324 31.75173,-32.55803 55.1845203,-31.75001 21.9226197,0.75594 36.1860797,140.88214 73.3273797,141.3631 44.370608,0.57458 63.443028,-167.98601 90.714258,-167.82144 43.20123,0.26071 38.02065,61.94814 84.6667,59.72022 44.89869,-2.14446 55.91851,-33.45143 74.08331,-33.26188 37.01714,0.38627 43.11269,52.19254 63.50001,51.40475 37.0643,-1.43221 -4.5357,-591.30661 -4.5357,-591.30661 z"
       id="path930"
       inkscape:connector-curvature="0"
       sodipodi:nodetypes="ccssssssscc" />
    <path
       style="fill:#000000;fill-opacity:1;stroke:none;stroke-width:0.26458332px;stroke-linecap:butt;stroke-linejoin:miter;stroke-opacity:1"
       d="m -76.351188,-290.37503 -3.77976,526.71055 c -0.75595,-22.75418 3.50392,67.36674 25.70238,64.67171 22.50628,-2.7324 24.19221,-28.02231 47.6250003,-27.21429 21.9226197,0.75594 37.6979797,134.83452 74.8392797,135.31548 44.370608,0.57458 63.443028,-167.98601 90.714258,-167.82144 43.20123,0.26071 36.50875,75.55528 83.1548,73.32736 44.89869,-2.14446 58.18636,-54.61809 76.35116,-54.42854 37.01714,0.38627 22.70198,60.50801 62.74406,58.96427 37.06443,-1.42895 -4.5357,-608.76915 -4.5357,-608.76915 z"
       id="path934"
       inkscape:connector-curvature="0"
       sodipodi:nodetypes="ccssssssscc" />
    <path
       style="fill:#000000;fill-opacity:1;stroke:none;stroke-width:0.26458332px;stroke-linecap:butt;stroke-linejoin:miter;stroke-opacity:1"
       d="m -76.351188,-290.37503 -3.77976,544.17301 c -0.75595,-22.75418 -4.05561,60.56317 18.14285,57.86814 22.50629,-2.7324 31.75174,-21.21874 55.1845303,-20.41072 21.9226197,0.75594 19.5511997,153.49141 75.5952297,152.70238 57.973968,-0.81619 62.687078,-185.37291 89.958308,-185.20834 43.20123,0.26071 35.7528,88.40648 82.39885,86.17856 44.89869,-2.14446 59.69827,-54.61809 77.86307,-54.42854 37.01714,0.38627 21.94602,47.65681 61.9881,46.11307 37.06443,-1.42895 -4.5357,-626.23161 -4.5357,-626.23161 z"
       id="path938"
       inkscape:connector-curvature="0"
       sodipodi:nodetypes="ccssssssscc" />
    <path
       style="fill:#000000;fill-opacity:1;stroke:none;stroke-width:0.26458332px;stroke-linecap:butt;stroke-linejoin:miter;stroke-opacity:1"
       d="m -76.351188,-290.37503 -3.77976,561.63551 c -0.75595,-22.75418 -4.05561,60.56317 18.14285,57.86814 22.50629,-2.7324 31.75174,-21.21874 55.1845303,-20.41072 21.9226197,0.75594 19.5511997,153.49141 75.5952297,152.70238 57.973968,-0.81619 63.443028,-178.56933 90.714258,-178.40476 43.20123,0.26071 34.99685,81.6029 81.6429,79.37498 44.89869,-2.14446 59.69827,-54.61809 77.86307,-54.42854 37.01714,0.38627 21.94602,47.65681 61.9881,46.11307 37.06443,-1.42895 -4.5357,-643.69411 -4.5357,-643.69411 z"
       id="path942"
       inkscape:connector-curvature="0"
       sodipodi:nodetypes="ccssssssscc" />
    <path
       sodipodi:nodetypes="ccssssssscc"
       inkscape:connector-curvature="0"
       id="path944"
       d="m -76.351188,-290.37503 -3.77976,570.36676 c -0.75596,-22.75418 -4.05561,60.56317 18.14285,57.86814 22.50628,-2.7324 31.75174,-21.21874 55.1845203,-20.41072 21.9226197,0.75594 19.5512097,153.49141 75.5952297,152.70238 57.973968,-0.81619 65.710888,-165.71814 92.982118,-165.55357 43.20123,0.26071 32.72899,68.75171 79.37504,66.52379 44.89869,-2.14446 59.69827,-54.61809 77.86307,-54.42854 37.01714,0.38627 21.94602,47.65681 61.9881,46.11307 37.06443,-1.42895 -4.5357,-652.42536 -4.5357,-652.42536 z"
       style="fill:#000000;fill-opacity:1;stroke:none;stroke-width:0.26458332px;stroke-linecap:butt;stroke-linejoin:miter;stroke-opacity:1" />
  </g>
</svg>
